<?xml version="1.0" standalone="no"?>
<!DOCTYPE svg PUBLIC "-//W3C//DTD SVG 20010904//EN"
 "http://www.w3.org/TR/2001/REC-SVG-20010904/DTD/svg10.dtd">
<svg version="1.0" xmlns="http://www.w3.org/2000/svg"
 width="512.000000pt" height="512.000000pt" viewBox="0 0 512.000000 512.000000"
 preserveAspectRatio="xMidYMid meet">
<metadata>
Created by potrace 1.11, written by Peter Selinger 2001-2013
</metadata>
<g transform="translate(0.000000,512.000000) scale(0.100000,-0.100000)"
fill="#000000" stroke="none">
<path d="M209 5105 c-93 -34 -152 -92 -189 -184 -20 -51 -20 -67 -20 -2369 l0
-2317 31 -60 c34 -68 84 -118 149 -149 l45 -21 2335 0 2335 0 47 22 c64 29
132 101 157 165 20 53 20 65 18 2378 l-2 2325 -22 47 c-29 64 -101 132 -165
157 -53 20 -68 20 -2368 20 -1898 0 -2322 -3 -2351 -14z"/>
</g>
</svg>
